0
SECTION
2
ENTITIES
0
LINE
8
TURN_PROFILE
10
0
20
0
11
8
21
0
0
LINE
8
TURN_PROFILE
10
8
20
0
11
8
21
10
0
LINE
8
TURN_PROFILE
10
8
20
10
11
24
21
10
0
LINE
8
TURN_PROFILE
10
24
20
10
11
32
21
18
0
ARC
8
TURN_PROFILE
10
38
20
18
40
6
50
180
51
270
0
LINE
8
TURN_PROFILE
10
38
20
12
11
58
21
12
0
LINE
8
TURN_PROFILE
10
58
20
12
11
58
21
22
0
LINE
8
TURN_PROFILE
10
58
20
22
11
82
21
28
0
LINE
8
TURN_PROFILE
10
82
20
28
11
104
21
28
0
ARC
8
TURN_PROFILE
10
104
20
22
40
6
50
90
51
0
0
LINE
8
TURN_PROFILE
10
110
20
22
11
124
21
22
0
LINE
8
TURN_PROFILE
10
124
20
22
11
124
21
16
0
LINE
8
TURN_PROFILE
10
124
20
16
11
130
21
16
0
LINE
8
TURN_PROFILE
10
130
20
16
11
130
21
24
0
LINE
8
TURN_PROFILE
10
130
20
24
11
152
21
24
0
LINE
8
TURN_PROFILE
10
152
20
24
11
164
21
36
0
LINE
8
TURN_PROFILE
10
164
20
36
11
188
21
36
0
LINE
8
CENTER
10
-5
20
0
11
198
21
0
0
ENDSEC
0
EOF
