0
SECTION
2
ENTITIES
0
LINE
8
CENTER
10
-10
20
0
11
190
21
0
0
LINE
8
SPINDLE_OUTLINE
10
0
20
-10
11
0
21
10
0
LINE
8
SPINDLE_OUTLINE
10
0
20
10
11
30
21
10
0
LINE
8
SPINDLE_OUTLINE
10
30
20
10
11
30
21
16
0
LINE
8
SPINDLE_OUTLINE
10
30
20
16
11
60
21
16
0
LINE
8
SPINDLE_OUTLINE
10
60
20
16
11
70
21
22
0
LINE
8
SPINDLE_OUTLINE
10
70
20
22
11
110
21
22
0
LINE
8
SPINDLE_OUTLINE
10
110
20
22
11
120
21
16
0
LINE
8
SPINDLE_OUTLINE
10
120
20
16
11
150
21
16
0
LINE
8
SPINDLE_OUTLINE
10
150
20
16
11
150
21
10
0
LINE
8
SPINDLE_OUTLINE
10
150
20
10
11
180
21
10
0
LINE
8
SPINDLE_OUTLINE
10
180
20
10
11
180
21
-10
0
LINE
8
SPINDLE_OUTLINE
10
180
20
-10
11
150
21
-10
0
LINE
8
SPINDLE_OUTLINE
10
150
20
-10
11
150
21
-16
0
LINE
8
SPINDLE_OUTLINE
10
150
20
-16
11
120
21
-16
0
LINE
8
SPINDLE_OUTLINE
10
120
20
-16
11
110
21
-22
0
LINE
8
SPINDLE_OUTLINE
10
110
20
-22
11
70
21
-22
0
LINE
8
SPINDLE_OUTLINE
10
70
20
-22
11
60
21
-16
0
LINE
8
SPINDLE_OUTLINE
10
60
20
-16
11
30
21
-16
0
LINE
8
SPINDLE_OUTLINE
10
30
20
-16
11
30
21
-10
0
LINE
8
SPINDLE_OUTLINE
10
30
20
-10
11
0
21
-10
0
ENDSEC
0
EOF
