0
SECTION
2
ENTITIES
0
LINE
8
CENTER
10
-10
20
0
11
280
21
0
0
LINE
8
SPINDLE_PROFILE
10
0
20
0
11
0
21
18
0
LINE
8
SPINDLE_PROFILE
10
0
20
18
11
20
21
18
0
ARC
8
SPINDLE_FILLET
10
20
20
22
40
4
50
270
51
0
0
LINE
8
SPINDLE_PROFILE
10
24
20
22
11
55
21
22
0
LINE
8
SPINDLE_GROOVE
10
55
20
22
11
55
21
17
0
LINE
8
SPINDLE_GROOVE
10
55
20
17
11
62
21
17
0
LINE
8
SPINDLE_GROOVE
10
62
20
17
11
62
21
22
0
LINE
8
SPINDLE_PROFILE
10
62
20
22
11
90
21
22
0
ARC
8
SPINDLE_FILLET
10
90
20
28
40
6
50
270
51
0
0
LINE
8
SPINDLE_PROFILE
10
96
20
28
11
118
21
28
0
LINE
8
SPINDLE_TAPER
10
118
20
28
11
150
21
38
0
LINE
8
SPINDLE_PROFILE
10
150
20
38
11
174
21
38
0
ARC
8
SPINDLE_FILLET
10
174
20
34
40
4
50
90
51
0
0
LINE
8
SPINDLE_PROFILE
10
178
20
34
11
196
21
34
0
LINE
8
SPINDLE_GROOVE
10
196
20
34
11
196
21
29
0
LINE
8
SPINDLE_GROOVE
10
196
20
29
11
204
21
29
0
LINE
8
SPINDLE_GROOVE
10
204
20
29
11
204
21
34
0
LINE
8
SPINDLE_PROFILE
10
204
20
34
11
230
21
34
0
LINE
8
SPINDLE_TAPER
10
230
20
34
11
252
21
24
0
LINE
8
SPINDLE_PROFILE
10
252
20
24
11
270
21
24
0
LINE
8
SPINDLE_PROFILE
10
270
20
24
11
270
21
0
0
ENDSEC
0
EOF
